# File created by Blade
# Date/Time:  Wed Jan 28 15:39:58 2015
#---------------------------------------------------------
:version 1.10
:name HOM
:units
  mass 1.0
  length 1.000000
  angle deg
:documentation
     Acclaim Skeleton File
:root
   axis xyz
   order TX TY TZ RX RY RZ
   position 0.000000 0.000000 0.000000
   orientation 0 0 0
:bonedata
   begin
      id 1
      name Spine_dum
      direction 0.000000 1.000000 0.000000
      length 6.864287
      axis 0.0 0.0 0.0 xyz
   end
   begin
      id 2
      name LeftUpLeg_dum
      direction 1.000000 0.000000 0.000000
      length 4.117376
      axis 0.0 0.0 0.0 xyz
   end
   begin
      id 3
      name RightUpLeg_dum
      direction -1.000000 0.000000 0.000000
      length 4.117376
      axis 0.0 0.0 0.0 xyz
   end
   begin
      id 4
      name Spine
      direction 0.000000 1.000000 0.000000
      length 0.000000
      axis 0.0 0.0 0.0 xyz
      dof rx ry rz
   end
   begin
      id 5
      name Spine_dum1
      direction 0.000000 1.000000 0.000000
      length 15.393827
      axis 0.0 0.0 0.0 xyz
   end
   begin
      id 6
      name Spine_dum2
      direction 0.000000 1.000000 0.000000
      length 9.314826
      axis 0.0 0.0 0.0 xyz
   end
   begin
      id 7
      name Spine_dum3
      direction 0.000000 1.000000 0.000000
      length 9.314826
      axis 0.0 0.0 0.0 xyz
   end
   begin
      id 8
      name Head
      direction 0.000000 1.000000 0.000000
      length 4.527550
      axis 0.0 0.0 0.0 xyz
      dof rx ry rz
   end
   begin
      id 9
      name LeftShoulder
      direction 1.000000 0.000000 0.000000
      length 8.275398
      axis 0.0 0.0 -90.0 xyz
      dof rx ry rz
   end
   begin
      id 10
      name LeftArm
      direction 1.000000 0.000000 0.000000
      length 12.002200
      axis 0.0 0.0 -90.0 xyz
      dof rx ry rz
   end
   begin
      id 11
      name LeftForeArm
      direction 1.000000 0.000000 0.000000
      length 10.144633
      axis 0.0 0.0 -90.0 xyz
      dof ry rz rx
   end
   begin
      id 12
      name LeftHand
      direction 0.000000 0.000000 0.000000
      length 0.000000
      axis 0.0 0.0 -90.0 xyz
      dof rx ry rz
   end
   begin
      id 13
      name LeftHand_dum1
      direction 0.000000 0.000000 0.000000
      length 0.000000
      axis 0.0 0.0 -90.0 xyz
   end
   begin
      id 14
      name LeftHand_dum2
      direction 1.000000 0.000000 0.000000
      length 3.937000
      axis 0.0 0.0 -90.0 xyz
   end
   begin
      id 15
      name LeftHandThumb1
      direction 0.000000 0.000000 1.000000
      length 3.937000
      axis 0.0 0.0 -90.0 xyz
      dof rx rz ry
   end
   begin
      id 16
      name RightShoulder
      direction -1.000000 0.000000 0.000000
      length 8.275398
      axis 0.0 0.0 90.0 xyz
      dof rx ry rz
   end
   begin
      id 17
      name RightArm
      direction -1.000000 0.000000 0.000000
      length 12.002200
      axis 0.0 0.0 90.0 xyz
      dof rx ry rz
   end
   begin
      id 18
      name RightForeArm
      direction -1.000000 0.000000 0.000000
      length 10.144633
      axis 0.0 0.0 90.0 xyz
      dof ry rz rx
   end
   begin
      id 19
      name RightHand
      direction 0.000000 0.000000 0.000000
      length 0.000000
      axis 0.0 0.0 90.0 xyz
      dof rx ry rz
   end
   begin
      id 20
      name RightHand_dum1
      direction 0.000000 0.000000 0.000000
      length 0.000000
      axis 0.0 0.0 90.0 xyz
   end
   begin
      id 21
      name RightHand_dum2
      direction -1.000000 0.000000 0.000000
      length 3.937000
      axis 0.0 0.0 90.0 xyz
   end
   begin
      id 22
      name RightHandThumb1
      direction 0.000000 0.000000 1.000000
      length 3.937000
      axis 0.0 0.0 90.0 xyz
      dof rx rz ry
   end
   begin
      id 23
      name LeftUpLeg
      direction 0.000000 -1.000000 0.000000
      length 19.394322
      axis 0.0 0.0 0.0 xyz
      dof rx ry rz
   end
   begin
      id 24
      name LeftLeg
      direction 0.000000 -1.000000 0.000000
      length 17.609563
      axis 0.0 0.0 0.0 xyz
      dof rx ry rz
   end
   begin
      id 25
      name LeftFoot
      direction 0.000000 -0.258819 0.965926
      length 6.085393
      axis 15.0 0.0 0.0 xyz
      dof rx ry rz
   end
   begin
      id 26
      name LeftToeBase
      direction 0.000000 0.000000 1.000000
      length 2.952750
      axis 0.0 0.0 0.0 xyz
      dof rx ry rz
   end
   begin
      id 27
      name RightUpLeg
      direction 0.000000 -1.000000 0.000000
      length 19.394322
      axis 0.0 0.0 0.0 xyz
      dof rx ry rz
   end
   begin
      id 28
      name RightLeg
      direction 0.000000 -1.000000 0.000000
      length 17.609563
      axis 0.0 0.0 0.0 xyz
      dof rx ry rz
   end
   begin
      id 29
      name RightFoot
      direction 0.000000 -0.258819 0.965926
      length 6.085393
      axis 15.0 0.0 0.0 xyz
      dof rx ry rz
   end
   begin
      id 30
      name RightToeBase
      direction 0.000000 0.000000 1.000000
      length 2.952750
      axis 0.0 0.0 0.0 xyz
      dof rx ry rz
   end
:hierarchy
   begin
      root Spine_dum LeftUpLeg_dum RightUpLeg_dum
      Spine_dum Spine
      LeftUpLeg_dum LeftUpLeg
      RightUpLeg_dum RightUpLeg
      Spine Spine_dum1 Spine_dum2 Spine_dum3
      Spine_dum1 Head
      Spine_dum2 LeftShoulder
      Spine_dum3 RightShoulder
      LeftShoulder LeftArm
      LeftArm LeftForeArm
      LeftForeArm LeftHand
      LeftHand LeftHand_dum1 LeftHand_dum2
      LeftHand_dum1 LeftHandThumb1
      RightShoulder RightArm
      RightArm RightForeArm
      RightForeArm RightHand
      RightHand RightHand_dum1 RightHand_dum2
      RightHand_dum1 RightHandThumb1
      LeftUpLeg LeftLeg
      LeftLeg LeftFoot
      LeftFoot LeftToeBase
      RightUpLeg RightLeg
      RightLeg RightFoot
      RightFoot RightToeBase
   end

# File created by Blade
# Date/Time:  Wed Jan 28 15:40:07 2015
# Frame Rate: 120.000 fps
#------------------------------------------------------
:FULLY-SPECIFIED
:DEGREES
58
root 0.259198 39.595093 -8.018635 1.562163 -0.345126 2.623378
Spine 4.507417 -4.600707 -6.886610
Head 5.737745 -14.930238 9.374491
LeftShoulder -16.337107 21.395480 23.339744
LeftArm 20.369997 -35.273990 -54.780283
LeftForeArm -17.895635 -0.000000 15.045801
LeftHand 8.918586 -0.000000 -5.724619
LeftHandThumb1 -26.253704 0.000000 33.147579
RightShoulder -11.519569 4.371550 -23.829472
RightArm -2.724003 42.304310 47.686236
RightForeArm 3.563417 -0.000000 17.705598
RightHand -1.413704 -0.000000 -14.090837
RightHandThumb1 -24.326973 -0.000000 -32.862282
LeftUpLeg 1.567963 7.136311 1.847362
LeftLeg 3.345981 -0.000000 -0.000000
LeftFoot -9.026884 6.077839 -17.088624
LeftToeBase 11.631527 -0.000000 -0.000000
RightUpLeg 0.574817 -4.450965 -2.351296
RightLeg 3.704636 -0.000000 -0.000000
RightFoot -16.684837 -18.651356 20.817616
RightToeBase 11.982228 -0.000000 -0.000000
59
root 0.280936 39.595739 -8.019890 1.516372 -0.344406 2.639934
Spine 4.589614 -4.582085 -7.000712
Head 5.965988 -16.372416 9.844199
LeftShoulder -16.308566 21.384861 23.363589
LeftArm 20.289116 -34.794417 -54.698960
LeftForeArm -17.286890 -0.000000 15.498585
LeftHand 8.968793 -0.000000 -5.790988
LeftHandThumb1 -26.253704 0.000000 33.147579
RightShoulder -11.598884 4.386075 -23.768565
RightArm -2.697019 42.236581 47.763056
RightForeArm 3.437484 -0.000000 17.680850
RightHand -1.384239 -0.000000 -14.051038
RightHandThumb1 -24.326973 -0.000000 -32.862282
LeftUpLeg 1.595778 7.106702 1.801998
LeftLeg 3.380295 -0.000000 -0.000000
LeftFoot -9.060456 6.106612 -17.081649
LeftToeBase 11.669804 -0.000000 -0.000000
RightUpLeg 0.587701 -4.494407 -2.407426
RightLeg 3.772698 -0.000000 -0.000000
RightFoot -16.695558 -18.629226 20.836833
RightToeBase 11.968960 -0.000000 -0.000000
60
root 0.302362 39.596824 -8.022932 1.480272 -0.350870 2.646146
Spine 4.647708 -4.572515 -7.092355
Head 6.261737 -17.835423 10.190135
LeftShoulder -16.240677 21.350051 23.386233
LeftArm 20.139600 -34.336196 -54.571402
LeftForeArm -16.688234 -0.000000 15.943257
LeftHand 8.892791 -0.000000 -5.864092
LeftHandThumb1 -26.253704 0.000000 33.147579
RightShoulder -11.643681 4.277407 -23.689509
RightArm -2.582420 42.253369 47.906176
RightForeArm 3.359469 -0.000000 17.710273
RightHand -1.393582 -0.000000 -14.052212
RightHandThumb1 -24.326973 -0.000000 -32.862282
LeftUpLeg 1.606510 7.127307 1.762694
LeftLeg 3.432442 -0.000000 -0.000000
LeftFoot -9.083546 6.113864 -16.987439
LeftToeBase 11.638247 -0.000000 -0.000000
RightUpLeg 0.589712 -4.497676 -2.450269
RightLeg 3.838859 -0.000000 -0.000000
RightFoot -16.722191 -18.553622 20.896182
RightToeBase 12.050804 -0.000000 -0.000000
61
root 0.325608 39.598269 -8.026404 1.438903 -0.351250 2.662133
Spine 4.731376 -4.593852 -7.199380
Head 6.501756 -19.288510 10.673392
LeftShoulder -16.255086 21.400364 23.364590
LeftArm 20.150102 -33.936463 -54.546145
LeftForeArm -16.065614 -0.000000 16.373643
LeftHand 8.934707 -0.000000 -5.921999
LeftHandThumb1 -26.253704 0.000000 33.147579
RightShoulder -11.675348 4.291964 -23.621599
RightArm -2.577234 42.076287 47.962927
RightForeArm 3.447668 -0.000000 17.742929
RightHand -1.343833 -0.000000 -14.096145
RightHandThumb1 -24.326973 -0.000000 -32.862282
LeftUpLeg 1.622944 7.092397 1.714999
LeftLeg 3.472599 -0.000000 -0.000000
LeftFoot -9.114749 6.145728 -16.973753
LeftToeBase 11.679397 -0.000000 -0.000000
RightUpLeg 0.593432 -4.520457 -2.511461
RightLeg 3.911525 -0.000000 -0.000000
RightFoot -16.735244 -18.513840 20.966057
RightToeBase 11.981193 -0.000000 -0.000000
62
root 0.350439 39.600033 -8.029468 1.384139 -0.362669 2.669924
Spine 4.834031 -4.595148 -7.289037
Head 6.759362 -20.783943 11.059963
LeftShoulder -16.231129 21.399052 23.378992
LeftArm 20.064735 -33.430170 -54.473349
LeftForeArm -15.647133 0.000000 16.845581
LeftHand 8.819638 -0.000000 -5.867988
LeftHandThumb1 -26.253704 0.000000 33.147579
RightShoulder -11.716782 4.354174 -23.570900
RightArm -2.636634 41.986022 47.983092
RightForeArm 3.328240 -0.000000 17.819875
RightHand -1.387838 0.000000 -14.091276
RightHandThumb1 -24.326973 -0.000000 -32.862282
LeftUpLeg 1.660133 7.078340 1.677660
LeftLeg 3.504504 -0.000000 -0.000000
LeftFoot -9.134067 6.156629 -16.972618
LeftToeBase 11.672346 -0.000000 -0.000000
RightUpLeg 0.604184 -4.533574 -2.564069
RightLeg 3.993856 -0.000000 -0.000000
RightFoot -16.746857 -18.429699 21.015676
RightToeBase 11.949432 -0.000000 -0.000000
63
root 0.375366 39.601962 -8.032563 1.312789 -0.387166 2.682805
Spine 4.961135 -4.596093 -7.400493
Head 6.995587 -22.258196 11.471750
LeftShoulder -16.179446 21.360912 23.407102
LeftArm 19.875488 -32.972378 -54.356050
LeftForeArm -15.040400 -0.000000 17.351766
LeftHand 8.837552 -0.000000 -5.992634
LeftHandThumb1 -26.253704 0.000000 33.147579
RightShoulder -11.759092 4.332253 -23.470824
RightArm -2.575676 41.873547 48.064185
RightForeArm 3.404113 -0.000000 17.924709
RightHand -1.416794 -0.000000 -14.136287
RightHandThumb1 -24.326973 -0.000000 -32.862282
LeftUpLeg 1.717300 7.072666 1.632925
LeftLeg 3.534008 -0.000000 -0.000000
LeftFoot -9.151590 6.180110 -16.957011
LeftToeBase 11.678930 -0.000000 -0.000000
RightUpLeg 0.621778 -4.562197 -2.622127
RightLeg 4.100011 -0.000000 -0.000000
RightFoot -16.750584 -18.345969 21.045783
RightToeBase 11.938784 -0.000000 -0.000000
64
root 0.401239 39.604657 -8.036541 1.256421 -0.393496 2.704798
Spine 5.075868 -4.636355 -7.514395
Head 7.249856 -23.695853 11.813067
LeftShoulder -16.198531 21.440359 23.384035
LeftArm 19.873830 -32.487776 -54.311284
LeftForeArm -14.696858 -0.000000 17.828411
LeftHand 8.703675 0.000000 -5.933561
LeftHandThumb1 -26.253704 0.000000 33.147579
RightShoulder -11.767876 4.357763 -23.379014
RightArm -2.596432 41.797258 48.108189
RightForeArm 3.372016 -0.000000 18.082865
RightHand -1.428963 -0.000000 -14.213571
RightHandThumb1 -24.326973 -0.000000 -32.862282
LeftUpLeg 1.745344 7.078656 1.575059
LeftLeg 3.577471 -0.000000 -0.000000
LeftFoot -9.159384 6.217121 -16.887174
LeftToeBase 11.685381 -0.000000 -0.000000
RightUpLeg 0.631517 -4.594670 -2.689548
RightLeg 4.175244 -0.000000 -0.000000
RightFoot -16.759286 -18.299910 21.122441
RightToeBase 11.864666 -0.000000 -0.000000
65
root 0.430819 39.606606 -8.041410 1.198235 -0.397037 2.716943
Spine 5.201675 -4.677307 -7.588237
Head 7.474766 -25.122907 12.133679
LeftShoulder -16.171070 21.403479 23.378209
LeftArm 19.737300 -32.021690 -54.231164
LeftForeArm -14.088510 0.000000 18.314009
LeftHand 8.566906 -0.000000 -5.949662
LeftHandThumb1 -26.253704 0.000000 33.147579
RightShoulder -11.807732 4.322049 -23.328950
RightArm -2.558178 41.850171 48.240756
RightForeArm 3.372772 -0.000000 18.295976
RightHand -1.402505 -0.000000 -14.249802
RightHandThumb1 -24.326973 -0.000000 -32.862282
LeftUpLeg 1.763916 7.109327 1.522681
LeftLeg 3.645989 -0.000000 -0.000000
LeftFoot -9.179849 6.209240 -16.830234
LeftToeBase 11.678816 -0.000000 -0.000000
RightUpLeg 0.628551 -4.642604 -2.751484
RightLeg 4.291527 -0.000000 -0.000000
RightFoot -16.794545 -18.242041 21.161602
RightToeBase 11.946245 -0.000000 -0.000000
66
root 0.459440 39.608778 -8.045475 1.133594 -0.407547 2.727720
Spine 5.327626 -4.697288 -7.668607
Head 7.720687 -26.591802 12.453205
LeftShoulder -16.064798 21.258650 23.437670
LeftArm 19.448836 -31.541491 -54.098365
LeftForeArm -13.523062 -0.000000 18.796310
LeftHand 8.563922 -0.000000 -6.001556
LeftHandThumb1 -26.253704 0.000000 33.147579
RightShoulder -11.834807 4.321184 -23.252764
RightArm -2.583849 41.732391 48.284880
RightForeArm 3.386404 0.000000 18.525700
RightHand -1.436996 -0.000000 -14.324210
RightHandThumb1 -24.326973 -0.000000 -32.862282
LeftUpLeg 1.796898 7.129220 1.474793
LeftLeg 3.701426 -0.000000 -0.000000
LeftFoot -9.200738 6.214592 -16.784085
LeftToeBase 11.678419 -0.000000 -0.000000
RightUpLeg 0.645753 -4.674432 -2.818871
RightLeg 4.367132 -0.000000 -0.000000
RightFoot -16.780721 -18.147497 21.251061
RightToeBase 11.944738 -0.000000 -0.000000
67
root 0.487688 39.610647 -8.051625 1.084978 -0.444278 2.744406
Spine 5.443334 -4.730745 -7.763454
Head 7.954379 -28.058885 12.791635
LeftShoulder -16.079853 21.318740 23.413609
LeftArm 19.433398 -31.109001 -54.078639
LeftForeArm -12.956556 -0.000000 19.257663
LeftHand 8.563193 -0.000000 -6.051908
LeftHandThumb1 -26.253704 0.000000 33.147579
RightShoulder -11.849060 4.368211 -23.189968
RightArm -2.638607 41.753676 48.347159
RightForeArm 3.316179 0.000000 18.811119
RightHand -1.485793 0.000000 -14.364682
RightHandThumb1 -24.326973 -0.000000 -32.862282
LeftUpLeg 1.811411 7.186771 1.418170
LeftLeg 3.762153 -0.000000 -0.000000
LeftFoot -9.226097 6.223018 -16.731022
LeftToeBase 11.667728 -0.000000 -0.000000
RightUpLeg 0.629657 -4.674632 -2.884039
RightLeg 4.467655 -0.000000 -0.000000
RightFoot -16.800099 -18.090549 21.307776
RightToeBase 12.002113 -0.000000 -0.000000
68
root 0.519297 39.612635 -8.059162 1.039879 -0.483275 2.758661
Spine 5.548571 -4.788397 -7.838310
Head 8.214441 -29.467786 13.047732
LeftShoulder -16.057691 21.294398 23.398178
LeftArm 19.276766 -30.642917 -53.980838
LeftForeArm -12.378221 -0.000000 19.715187
LeftHand 8.454730 0.000000 -6.011960
LeftHandThumb1 -26.253704 0.000000 33.147579
RightShoulder -11.802304 4.318069 -23.119958
RightArm -2.667135 41.740711 48.437717
RightForeArm 3.284489 -0.000000 19.152122
RightHand -1.508569 -0.000000 -14.440940
RightHandThumb1 -24.326973 -0.000000 -32.862282
LeftUpLeg 1.861159 7.034555 1.347490
LeftLeg 3.738385 -0.000000 -0.000000
LeftFoot -9.263421 6.419330 -16.720078
LeftToeBase 11.659029 -0.000000 -0.000000
RightUpLeg 0.603873 -4.687762 -2.954800
RightLeg 4.578712 -0.000000 -0.000000
RightFoot -16.801427 -18.012583 21.365986
RightToeBase 11.942192 -0.000000 -0.000000
69
root 0.550832 39.615326 -8.066313 0.989937 -0.523173 2.770627
Spine 5.684092 -4.788189 -7.917346
Head 8.377236 -30.871907 13.405962
LeftShoulder -16.015112 21.290895 23.402258
LeftArm 19.194520 -30.223127 -53.964205
LeftForeArm -11.838308 -0.000000 20.231235
LeftHand 8.287713 -0.000000 -6.007832
LeftHandThumb1 -26.253704 0.000000 33.147579
RightShoulder -11.880342 4.219612 -23.012837
RightArm -2.548413 41.743659 48.587289
RightForeArm 3.276536 -0.000000 19.471462
RightHand -1.546613 -0.000000 -14.491280
RightHandThumb1 -24.326973 -0.000000 -32.862282
LeftUpLeg 1.886546 7.035319 1.290282
LeftLeg 3.778852 -0.000000 -0.000000
LeftFoot -9.293372 6.452707 -16.714170
LeftToeBase 11.708650 -0.000000 -0.000000
RightUpLeg 0.583455 -4.698259 -3.022280
RightLeg 4.676986 -0.000000 -0.000000
RightFoot -16.783712 -17.828625 21.409966
RightToeBase 12.159418 -0.000000 -0.000000
70
root 0.584393 39.617828 -8.075253 0.939585 -0.563890 2.783825
Spine 5.825697 -4.794024 -7.994838
Head 8.560794 -32.225400 13.729363
LeftShoulder -15.958119 21.280625 23.408105
LeftArm 19.106283 -29.850357 -53.962390
LeftForeArm -11.260161 0.000000 20.715041
LeftHand 8.299229 -0.000000 -6.053654
LeftHandThumb1 -26.253704 0.000000 33.147579
RightShoulder -11.895872 4.294128 -22.933561
RightArm -2.688279 41.688434 48.556259
RightForeArm 3.268627 -0.000000 19.818961
RightHand -1.564474 -0.000000 -14.512040
RightHandThumb1 -24.326973 -0.000000 -32.862282
LeftUpLeg 1.898549 7.043633 1.227979
LeftLeg 3.839308 -0.000000 -0.000000
LeftFoot -9.321833 6.494851 -16.675141
LeftToeBase 11.680924 -0.000000 -0.000000
RightUpLeg 0.550217 -4.718159 -3.093601
RightLeg 4.809109 -0.000000 -0.000000
RightFoot -16.786281 -17.861846 21.442654
RightToeBase 11.646964 -0.000000 -0.000000
